<svg xmlns="http://www.w3.org/2000/svg" viewBox="0 0 400 400" width="100%" height="100%">
  <defs>
    <!-- Premium Gradients -->
    <linearGradient id="shield-grad" x1="0%" y1="0%" x2="100%" y2="100%">
      <stop offset="0%" stop-color="#00d2ff" />
      <stop offset="100%" stop-color="#3a5cf5" />
    </linearGradient>
    
    <linearGradient id="drop-grad" x1="0%" y1="0%" x2="0%" y2="100%">
      <stop offset="0%" stop-color="#2dd4bf" />
      <stop offset="100%" stop-color="#00d2ff" />
    </linearGradient>

    <linearGradient id="inner-glow" x1="0%" y1="0%" x2="100%" y2="100%">
      <stop offset="0%" stop-color="#ffffff" stop-opacity="0.8"/>
      <stop offset="100%" stop-color="#ffffff" stop-opacity="0.1"/>
    </linearGradient>

    <!-- Glowing Drop Shadow Filter -->
    <filter id="neon-glow" x="-50%" y="-50%" width="200%" height="200%">
      <feGaussianBlur in="SourceGraphic" stdDeviation="15" result="blur" />
      <feMerge>
        <feMergeNode in="blur" />
        <feMergeNode in="SourceGraphic" />
      </feMerge>
    </filter>
    
    <filter id="soft-glow" x="-20%" y="-20%" width="140%" height="140%">
      <feGaussianBlur in="SourceGraphic" stdDeviation="5" result="blur" />
      <feMerge>
        <feMergeNode in="blur" />
        <feMergeNode in="SourceGraphic" />
      </feMerge>
    </filter>
  </defs>

  <g transform="translate(200, 200)">
    
    <!-- Outer Rings for framing -->
    <circle cx="0" cy="0" r="160" fill="none" stroke="url(#shield-grad)" stroke-width="6" opacity="0.6" />
    <circle cx="0" cy="0" r="145" fill="none" stroke="#2dd4bf" stroke-width="4" opacity="0.5" />

    <!-- Solid Background representation -->
    <circle cx="0" cy="0" r="130" fill="url(#shield-grad)" opacity="0.15" />

    <!-- The Shield/Armor Background -->
    <path d="M 0,-120 L 95,-70 L 95,40 C 95,100 45,145 0,165 C -45,145 -95,100 -95,40 L -95,-70 Z" 
          fill="#0f172a" 
          stroke="url(#shield-grad)" 
          stroke-width="16" 
          stroke-linejoin="round"
          filter="url(#neon-glow)" 
          opacity="1" />

    <!-- Pure Water Droplet Overlay -->
    <path d="M 0,-65 C 45,-10 65,30 65,65 C 65,100 35,125 0,125 C -35,125 -65,100 -65,65 C -65,30 -45,-10 0,-65 Z" 
          fill="url(#drop-grad)" 
          filter="url(#soft-glow)" />

    <!-- Inner Core/Shine on the droplet -->
    <path d="M -20,-15 C -5,5 15,20 30,20 C 15,35 -15,10 -35,-20 C -30,-22 -25,-18 -20,-15 Z" 
          fill="#ffffff" 
          opacity="0.8" 
          filter="url(#soft-glow)" />
          
    <ellipse cx="-15" cy="50" rx="20" ry="10" transform="rotate(-40 -15 50)" fill="#ffffff" opacity="0.3" />

    <!-- Center Tech Node -->
    <circle cx="0" cy="65" r="14" fill="#ffffff" />
    <path d="M 0,65 L -35,35 M 0,65 L 35,35 M 0,65 L 0,0" stroke="#ffffff" stroke-width="4" opacity="1"/>
    <circle cx="-35" cy="35" r="6" fill="#ffffff" />
    <circle cx="35" cy="35" r="6" fill="#ffffff" />
    <circle cx="0" cy="0" r="6" fill="#ffffff" />

  </g>
</svg>
